<svg width="32" height="32" viewBox="0 0 32 32" fill="none" xmlns="http://www.w3.org/2000/svg">
  <rect width="32" height="32" rx="8" fill="#1DB954"/>
  <path d="M16 6C10.477 6 6 10.477 6 16s4.477 10 10 10 10-4.477 10-10S21.523 6 16 6zm4.586 14.424a.625.625 0 01-.86.208c-2.353-1.438-5.316-1.764-8.806-.966a.625.625 0 11-.278-1.219c3.818-.872 7.094-.497 9.736 1.117a.625.625 0 01.208.86zm1.224-2.722a.781.781 0 01-1.074.257c-2.693-1.656-6.8-2.136-9.988-1.168a.781.781 0 11-.454-1.495c3.64-1.105 8.162-.57 11.259 1.332a.781.781 0 01.257 1.074zm.105-2.835C18.694 12.906 13.26 12.68 9.79 13.733a.937.937 0 11-.544-1.794c3.98-1.208 10.597-.975 14.775 1.353a.937.937 0 01-.106 1.575z" fill="white"/>
</svg>
